#!OML:ASF \\Waltz\H\Terrain\Patient Classification 1\Animal2\Wednesday\Animal2.ASF
:FULLY-SPECIFIED
:DEGREES
3753
root 20.2702 16.9402 -18.0692 712.977 5.09236 -720.47
lowerback 6.47339 -6.40223 -2.13205
upperback -3.13163 -8.80432 -0.656558
thorax -6.66981 -4.25175 1.54295
lowerneck 6.91509 9.781 17.322
upperneck -10.633 13.251 -20.4056
head -1.56044 6.9862 -9.3521
rclavicle -7.57867e-015 -1.2424e-014
rhumerus -59.1684 34.325 -96.8172
rradius 33.0977
rwrist 29.8426
rhand 7.42171 33.2687
rfingers 7.12502
rthumb 32.677 6.20091
lclavicle -7.57867e-015 -1.2424e-014
lhumerus -19.8711 -53.1986 80.5878
lradius 94.9177
lwrist -3.84358
lhand -16.6474 12.4774
lfingers 7.12502
lthumb 9.5756 42.2398
rfemur -24.665 -21.3744 24.3469
rtibia 45.3604
rfoot -18.5049 -11.4866
rtoes 38.7928
lfemur 7.01509 11.5497 -16.6682
ltibia 34.613
lfoot -30.6949 4.17167
ltoes -15.384
3754
root 20.2876 16.9287 -18.1504 713.117 4.98894 -720.371
lowerback 6.68416 -6.26905 -2.18885
upperback -2.94072 -8.63465 -0.696901
thorax -6.59023 -4.16905 1.52509
lowerneck 7.12996 9.61319 17.055
upperneck -10.7127 13.0244 -20.2126
head -1.69855 6.8842 -9.28131
rclavicle 3.2787e-014 -1.72943e-014
rhumerus -57.2795 34.5579 -97.0218
rradius 31.9617
rwrist 30.4682
rhand 7.27306 33.6104
rfingers 7.12502
rthumb 32.5356 6.51329
lclavicle 3.2787e-014 -1.72943e-014
lhumerus -21.0903 -52.8931 82.1976
lradius 92.6814
lwrist -2.71688
lhand -17.2925 12.9639
lfingers 7.12502
lthumb 8.95314 42.7539
rfemur -25.2654 -21.3228 24.3471
rtibia 45.4453
rfoot -18.0457 -11.5425
rtoes 38.4761
lfemur 6.4276 11.8833 -16.9535
ltibia 34.8808
lfoot -30.9896 4.82044
ltoes -16.0942
3755
root 20.3022 16.921 -18.2347 713.13 4.85701 -720.411
lowerback 7.16843 -6.08457 -2.12667
upperback -2.86507 -8.39656 -0.720918
thorax -6.80632 -4.04819 1.49392
lowerneck 7.67566 9.34148 16.9046
upperneck -10.8409 12.7112 -20.0205
head -1.91417 6.74928 -9.25861
rclavicle -3.13583e-014 4.57205e-015
rhumerus -55.3001 34.4016 -97.0297
rradius 30.437
rwrist 31.3733
rhand 7.1264 33.8302
rfingers 7.12502
rthumb 32.396 6.70446
lclavicle -3.13583e-014 4.57205e-015
lhumerus -22.641 -52.77 84.1277
lradius 90.167
lwrist -2.06083
lhand -18.0108 13.1232
lfingers 7.12502
lthumb 8.2599 42.9418
rfemur -25.6779 -21.2763 24.4705
rtibia 45.4855
rfoot -17.6489 -11.5247
rtoes 38.2153
lfemur 5.94803 12.277 -17.043
ltibia 35.1279
lfoot -31.249 5.30584
ltoes -16.4281
3756
root 20.3201 16.9162 -18.3176 713.044 4.72621 -720.302
lowerback 7.74669 -5.9174 -2.18983
upperback -2.73439 -8.19902 -0.804972
thorax -7.00759 -3.94354 1.47694
lowerneck 7.86355 9.11703 17.1163
upperneck -10.5723 12.4751 -20.1659
head -1.88847 6.64191 -9.35256
rclavicle -2.8625e-014 3.97569e-015
rhumerus -52.8063 33.9186 -96.6121
rradius 28.5673
rwrist 32.9271
rhand 6.63461 33.7764
rfingers 7.12502
rthumb 31.9278 6.55598
lclavicle -2.8625e-014 3.97569e-015
lhumerus -24.0846 -52.6862 85.8049
lradius 87.4464
lwrist -1.93093
lhand -18.8536 12.9681
lfingers 7.12502
lthumb 7.44647 42.8171
rfemur -25.9102 -21.3597 24.3458
rtibia 45.4879
rfoot -17.3082 -11.2847
rtoes 38.6155
lfemur 5.62057 12.726 -17.2631
ltibia 35.4514
lfoot -31.4883 5.40316
ltoes -15.387
3757
root 20.3336 16.9123 -18.395 713.046 4.63076 -720.035
lowerback 8.1499 -5.79413 -2.53924
upperback -2.52685 -8.07856 -0.819664
thorax -6.97458 -3.86987 1.6663
lowerneck 7.72741 8.99379 17.2283
upperneck -10.2274 12.3198 -20.429
head -1.76827 6.56966 -9.43911
rclavicle 6.26669e-014 1.39149e-014
rhumerus -50.3156 33.7969 -96.0974
rradius 27.1309
rwrist 34.4127
rhand 6.60248 33.6473
rfingers 7.12502
rthumb 31.8972 6.42075
lclavicle 6.26669e-014 1.39149e-014
lhumerus -24.9732 -52.3737 87.0655
lradius 84.629
lwrist -1.65648
lhand -19.0486 12.9254
lfingers 7.12502
lthumb 7.25821 42.7809
rfemur -26.1989 -21.3217 24.0669
rtibia 45.4481
rfoot -17.0912 -11.0811
rtoes 39.4746
lfemur 5.22513 13.165 -17.6219
ltibia 35.7814
lfoot -31.5328 5.28329
ltoes -14.0009
3758
root 20.3573 16.8992 -18.4913 713.31 4.04477 -719.96
lowerback 8.39176 -5.53172 -2.54383
upperback -2.39418 -7.72485 -0.709783
thorax -6.96749 -3.69389 1.75446
lowerneck 7.6547 8.94513 16.9788
upperneck -10.0921 12.2261 -20.4444
head -1.7508 6.53002 -9.39793
rclavicle -3.14328e-014 -1.88845e-015
rhumerus -47.9292 33.8358 -95.4476
rradius 26.1569
rwrist 35.8815
rhand 6.55981 33.6087
rfingers 7.12502
rthumb 31.8566 6.37413
lclavicle -3.14328e-014 -1.88845e-015
lhumerus -25.4971 -52.1801 88.1096
lradius 81.7821
lwrist -1.23281
lhand -18.6534 13.006
lfingers 7.12502
lthumb 7.63969 42.848
rfemur -26.9737 -20.7655 24.1803
rtibia 45.3949
rfoot -16.8324 -10.7431
rtoes 40.9489
lfemur 4.44693 13.749 -17.9487
ltibia 36.089
lfoot -31.4761 5.35251
ltoes -13.6115
3759
root 20.3724 16.8968 -18.5761 713.56 3.88213 -720.077
lowerback 8.51654 -5.38156 -2.42155
upperback -2.22763 -7.49989 -0.570182
thorax -6.86575 -3.58915 1.80556
lowerneck 7.40133 8.89688 16.6381
upperneck -9.85677 12.1169 -20.3232
head -1.6938 6.47011 -9.28146
rclavicle -6.40087e-014 2.98177e-016
rhumerus -45.4786 33.5944 -94.5751
rradius 25.3075
rwrist 37.7578
rhand 6.22951 33.6041
rfingers 7.12502
rthumb 31.542 6.30734
lclavicle -6.40087e-014 2.98177e-016
lhumerus -26.0101 -52.3562 89.092
lradius 78.9305
lwrist -1.04053
lhand -18.3091 13.0347
lfingers 7.12502
lthumb 7.97206 42.8644
rfemur -27.5647 -20.67 24.4375
rtibia 45.3156
rfoot -16.829 -10.239
rtoes 42.9038
lfemur 3.73409 13.9901 -17.9709
ltibia 36.3434
lfoot -31.4964 5.24896
ltoes -13.8537
3760
root 20.3898 16.898 -18.6641 713.724 3.58521 -720.031
lowerback 8.83848 -5.18684 -2.40846
upperback -2.13708 -7.24207 -0.516026
thorax -6.95727 -3.45913 1.84848
lowerneck 7.35454 8.82221 16.3785
upperneck -9.66958 12.0072 -20.1743
head -1.68217 6.41507 -9.18534
rclavicle 1.41261e-014 -6.26172e-015
rhumerus -43.3606 33.4626 -94.0189
rradius 24.5772
rwrist 39.8349
rhand 5.79071 33.4811
rfingers 7.12502
rthumb 31.1239 6.10333
lclavicle 1.41261e-014 -6.26172e-015
lhumerus -26.7493 -52.6784 90.1492
lradius 76.1165
lwrist -0.811069
lhand -18.1154 13.0428
lfingers 7.12502
lthumb 8.15899 42.8653
rfemur -28.0673 -20.7067 24.5229
rtibia 45.2037
rfoot -16.4259 -9.80891
rtoes 43.6658
lfemur 3.16829 14.3415 -18.111
ltibia 36.591
lfoot -31.631 5.15028
ltoes -13.0904
3761
root 20.4074 16.8962 -18.7584 713.903 3.24187 -719.809
lowerback 9.11896 -4.99873 -2.60379
upperback -2.00548 -7.01808 -0.512592
thorax -6.96218 -3.34091 1.9481
lowerneck 7.42694 8.78997 16.2374
upperneck -9.64943 11.9621 -20.1175
head -1.71086 6.39862 -9.15036
rclavicle -1.34639e-013 -6.4605e-015
rhumerus -41.3383 33.7564 -93.7289
rradius 24.1032
rwrist 41.7819
rhand 4.39612 33.462
rfingers 7.12502
rthumb 29.7938 5.83757
lclavicle -1.34639e-013 -6.4605e-015
lhumerus -27.2207 -52.9769 90.9787
lradius 73.1608
lwrist -0.578256
lhand -17.856 12.6502
lfingers 7.12502
lthumb 8.40929 42.4628
rfemur -28.6252 -20.647 24.4382
rtibia 44.9732
rfoot -15.5824 -9.58046
rtoes 43.3463
lfemur 2.55058 14.7017 -18.4901
ltibia 36.8301
lfoot -31.6373 5.24023
ltoes -13.7538
3762
root 20.4246 16.897 -18.8525 714.055 3.05252 -719.836
lowerback 9.32851 -4.86659 -2.56742
upperback -1.75493 -6.83179 -0.446265
thorax -6.81832 -3.25481 1.97692
lowerneck 7.15709 8.78666 16.2199
upperneck -9.58496 11.9232 -20.1763
head -1.65035 6.37125 -9.14791
rclavicle 1.32689e-014 -1.14301e-014
rhumerus -39.1094 34.1084 -93.2778
rradius 23.9817
rwrist 43.4296
rhand 3.72276 33.5776
rfingers 7.12502
rthumb 29.151 5.83992
lclavicle 1.32689e-014 -1.14301e-014
lhumerus -27.2861 -53.7482 91.507
lradius 70.0932
lwrist -0.396783
lhand -17.5961 11.9519
lfingers 7.12502
lthumb 8.66013 41.7543
rfemur -29.0485 -20.7375 24.5805
rtibia 44.5998
rfoot -14.7965 -9.25596
rtoes 43.229
lfemur 1.89606 14.9631 -18.6067
ltibia 37.0982
lfoot -31.4298 5.3567
ltoes -15.0339
